# xmcd
#
# Track frame offsets:
# 150
# 19049
# 36347
# 56488
# 67407
# 86950
# 101884
# 127989
# 166172
# 191295
# 212639
# 225002
# 246755
# 263736
#
# Disc length: 3756 seconds
#
#
# Revision: 0
# Processed by: cddbd v1.5.1PL0 Copyright (c) Steve Scherf et al.
# Submitted via: FreeRIP 2.92 
#
DISCID=bb0eaa0e
DTITLE=Charlie Musselwhite - DeLuxe Edition
DYEAR=2005
DGENRE=Blues
TTITLE0=river hip mania
TTITLE1=mean ole frisco
TTITLE2=blues got me again
TTITLE3=bedside of a nighbor
TTITLE4=when it rains it pours
TTITLE5=lotsa poppa
TTITLE6=movin and groovin
TTITLE7=38 special
TTITLE8=mama long legs
TTITLE9=the blues overtook me
TTITLE10=my road lies in darkness
TTITLE11=if i should have bad luck
TTITLE12=make my getaway
TTITLE13=newport nes blues
EXTD=
EXTT0=
EXTT1=
EXTT2=
EXTT3=
EXTT4=
EXTT5=
EXTT6=
EXTT7=
EXTT8=
EXTT9=
EXTT10=
EXTT11=
EXTT12=
EXTT13=
PLAYORDER=
